<svg width="150" height="36" viewBox="0 0 150 36" version="1.2" xmlns="http://www.w3.org/2000/svg">
  <path fill="#FFF" fill-rule="evenodd" d="M66.1 17.4h1.6c.4 0 .7-.1.9-.3l.2-.8v-4.7c0-.3 0-.6-.2-.8l-1-.2h-1.5v6.8zm-3.1 12V7.6h6.7l2.4 2.3V18l-2.4 2.4h-3.6v9H63zm-11.2 0l-2-1.9v-5.3H53v2.5c0 1.1.5 1.7 1.4 1.7 1 0 1.3-.6 1.3-1.7v-3.9l-6-3.3v-8l2-1.9h5.1l2 2v4.8h-3v-2.1c0-1-.4-1.6-1.4-1.7-.5 0-.8.2-1 .4-.3.3-.4.7-.4 1.3v3l6 3.4v8.7l-2 2h-5.2zm26.6-5.8H80l-1-9.7-.7 9.7zm2.3 5.8l-.2-2.9h-2.3l-.3 3h-3.3L77 7.5h4.2L84 29.4h-3.2zm10.4-12.1h1.6c.7 0 1-.4 1.1-1v-4.8c0-.6-.4-1-1-1H91v6.8zm2.7 12.1l-1.4-9.1H91v9.1H88V7.6h6.7l2.3 2.3v8l-1.5 1.5 1.6 10h-3.2zm13.7 0l-2.7-9v9h-3.2V7.6h3.2v10l2.7-10h3.2L108 19l3 10.5h-3.4zm10.1-12.3h1.4c.5 0 .8-.2 1-.4.2-.2.3-.6.3-1.1v-3.8c0-.3 0-.6-.2-.8-.2-.2-.6-.3-1-.3h-1.5v6.4zm1.4 9.3h.2c.7 0 1-.4 1.1-1.1v-4.1c0-.8-.4-1.1-1.2-1.1h-1.5v6.3h1.4zm-4.5 3V7.6h6.7l2.4 2.4v7l-1.5 1.5 1.5 1.4v7.2l-2.3 2.3h-6.8zm17.9-18.9c-1 .1-1.5.6-1.5 1.5v13c0 .4.1.7.3 1 .3.3.7.4 1.2.4 1 0 1.6-.5 1.5-1.5V12c0-.8-.6-1.3-1.5-1.4zm-2.3 19l-2.3-2.3V9.9l2.2-2.3h4.5l2.4 2.4v17l-2.5 2.4h-4.3zm9.8-21.9h3.2l2 5.7 1.7-5.7h3.1L146.8 18l3.2 11.4h-3.2l-1.7-6.2-2 6.2h-3l3.5-11.4-3.7-10.4zm-103.5 27c0 .8-.6 1.4-1.4 1.4H1.4C.6 36 0 35.4 0 34.6V1.4C0 .6.6 0 1.4 0H35c.8 0 1.4.6 1.4 1.4v33.2zm-10.9-11c0 1-.8 1.8-1.8 1.8h-6l5.4-3.5h.6c1 0 1.8.8 1.8 1.8zm-14.1 1.8V22h3.3l-2.1 3.5h-1.2zm0-14.9h6l-6 4.1v-4zm12.3 0c1 0 1.8.8 1.8 1.8s-.8 1.8-1.8 1.8H21l2.1-3.6h.5zm5.7 6.7H10.3l12-8-3.7 6.2.1.2h4.9c2 0 3.4-1.4 3.4-3.3 0-1.7-1.2-3-2.9-3.3l2.5-4v-.2a.2.2 0 0 0-.3-.1L24 6.2 19.8 9H10l-.2.2V15.6l-4.1 2.8-.1.2s0 .2.2.2H25L14 26l3.2-5.5-.1-.3h-7c-.2 0-.3.1-.3.2v6.3l.2.2h1.6l-2 3.4v.2a.2.2 0 0 0 .2.1l5.6-3.7h8.3c1.8 0 3.3-1.5 3.3-3.3 0-1.4-.8-2.6-2-3.1l4.5-3 .1-.2s0-.2-.2-.2z"/>
</svg>
