<svg version="1" xmlns="http://www.w3.org/2000/svg" width="933.333" height="933.333" viewBox="0 0 700.000000 700.000000"><path d="M533.9 54.8c-28.5 20-65.2 45.5-73.7 51.4-5.3 3.7-10.1 7.1-10.7 7.5-.5.5-3 2.2-5.5 3.9-2.5 1.7-13.7 9.5-25 17.4l-20.5 14.4-108 .1c-59.4.1-109 .4-110.1.8-1.2.4-2.4 1.5-2.6 2.5-.2.9-.3 35.1-.3 76l.1 74.3-41.1 28.7c-22.5 15.7-43.6 30.3-46.7 32.5-3.1 2.1-5.9 4.4-6.1 5-.8 2.2 1.1 5.4 3.5 5.8 1.3.3 97.6.4 214.1.4 116.4 0 211.7.2 211.7.5s-4.3 3.4-9.5 7-20.5 14.1-33.8 23.5c-13.4 9.3-34.9 24.3-47.8 33.3-12.9 9-52.4 36.5-87.9 61.2-35.4 24.7-64.6 44.8-64.7 44.6-.2-.2 3.6-7.3 8.5-15.7 10.4-18.1 41.7-73.2 45.7-80.4 1.5-2.8 3.6-6.2 4.6-7.7 1.1-1.4 1.9-2.8 1.9-3.1 0-.3 2.4-4.7 5.4-9.9 6.8-11.8 7.2-13.2 4.7-15-2.8-2-159.3-2-161.2-.1-1.9 1.9-1.9 148.4 0 150.7 1.1 1.4 4.1 1.6 19.7 1.6 10.1 0 18.4.2 18.4.5 0 .2-6.2 11.3-13.9 24.7-7.6 13.4-14.7 25.8-15.7 27.7-1 1.8-2.3 4.1-2.9 5-.5.9-3.9 6.7-7.4 12.9-4.8 8.6-6.2 11.8-5.7 13.7 1.1 4.2 5.1 3.2 14.8-3.8 4.9-3.4 11.7-8.2 15.3-10.7 3.6-2.5 10.2-7.1 14.8-10.3 4.5-3.1 8.9-6.2 9.7-6.7.8-.6 5.3-3.7 10-7s9.2-6.4 10-7c.8-.6 13.7-9.6 28.7-20l27.2-18.9 98.3-.3 98.3-.3 7.7-2.6c26.6-9 45.7-30.5 51.3-57.5 2.3-11 2-27.3-.5-33.8-.5-1.4-.7-2.6-.5-2.6 1.1 0-4.9-14-8.5-20.2-6.9-11.5-16.8-21.1-29-27.7l-5-2.7 8.6-6c4.7-3.2 10-7 11.7-8.2 1.8-1.3 20.5-14.4 41.7-29.1 21.7-15.1 39-27.9 39.7-29.2 2.9-5.8 17.7-5.4-215.5-5.9l-213.7-.5 40.5-28.2c43.7-30.4 98.3-68.4 100.9-70.2.9-.6 17.9-12.5 37.8-26.4 19.9-13.8 44-30.6 53.4-37.2 22.4-15.6 30.1-20.9 31.6-21.8.7-.5-1.1 3.4-4 8.5s-12.9 22.6-22.1 38.8c-38 66.6-53.3 93.6-53.9 95.2-.3 1 .1 2.4.9 3.3 1.4 1.3 8.9 1.5 60.7 1.5 36.4 0 61.7-.4 65.6-1.1 21.8-3.5 43.6-20.3 53.6-41.4 20.1-42.5-.7-93.1-44.4-107.4-3.5-1.2-7.5-2.1-8.7-2.1-1.3 0-2.5-.4-2.8-.9-.3-.5 1.9-5.3 5-10.7 3.1-5.5 6.8-11.9 8.2-14.4 1.4-2.5 8.6-15.1 16-28 12.8-22.3 14.9-26.2 22-38.9 2.9-5.2 3.1-7.7.8-9.3-2.2-1.5-4.3-.6-13.7 6zM346 185c0 .3-12.7 9.3-28.1 20-15.4 10.7-45.4 31.7-66.7 46.5l-38.7 27-.5-31.5c-.3-17.3-.4-38.5-.2-47l.3-15.5H279c36.9 0 67 .2 67 .5zm149.9 1c12.1 3.7 21 11.4 26.3 22.6 10.8 23.1-2 51.4-26.2 57.8-4.2 1.1-13 1.4-36.8 1.5-17.3.1-31.1-.2-30.9-.6 3.4-5.7 18.7-32.6 18.7-32.9 0-.3 3-5.5 10-17.4.5-.8 2.6-4.4 4.6-8 2-3.6 6-10.6 9-15.6l5.3-9.1 8.2.3c4.5.2 9.8.8 11.8 1.4zm-214 265.2c-1.2 2.4-7.7 14-14.4 25.8-6.6 11.8-16.1 28.6-20.9 37.2-5.5 9.9-9.4 15.9-10.4 15.9-1 .1-6.6.2-12.7.3l-11 .1-.5-14c-.3-7.7-.4-26.5-.2-41.8l.3-27.7H284l-2.1 4.2zm212.1-3c17.5 4.8 29.7 20 30.6 38.4.9 18.9-9.8 35.3-27.3 41.6-5.7 2-7.3 2.1-74.6 2.2-37.8.1-68.6-.2-68.5-.6.3-.5 40.3-28.8 89.9-63.4 4.2-2.9 12-8.4 17.5-12.3l9.9-7.1 9.5.1c5.2.1 11 .6 13 1.1z"/></svg>