<svg viewBox="0 0 181 43" xmlns="http://www.w3.org/2000/svg" xmlns:xlink="http://www.w3.org/1999/xlink"><defs><path id="a" d="M0 0h180.92v42.881H0z"/></defs><g fill="none" fill-rule="evenodd"><path d="M61.965 34.973l-2.192-2.235-.001-6.327 3.58-.01.009 2.987c.031 1.314.545 1.952 1.567 1.952 1.071-.001 1.555-.638 1.555-1.952v-4.54l-6.81-3.904v-9.513l2.116-2.17 5.926-.003 2.324 2.368.003 5.586-3.482.007-.009-2.474c.03-1.239-.49-1.885-1.547-1.919h-.008c-.578 0-.96.136-1.211.402-.305.318-.444.815-.424 1.517v3.496l6.775 4.037.005 10.321-2.322 2.374h-5.854M79.01 20.763l1.78-.009c.498 0 .804-.106 1.001-.316.204-.212.3-.537.281-.96V13.93c.019-.377-.07-.67-.261-.869-.212-.224-.56-.339-1.034-.339H79.01v8.04zm-3.626 14.21l-.009-25.707 7.745-.008L85.841 12l.003 9.541-2.718 2.743-4.125.004.01 10.685h-3.627zM94.25 28.036l1.996-.01-1.085-11.34-.912 11.35zm2.687 6.937l-.303-3.422-2.624.009-.285 3.406-3.693.007 2.657-25.707 4.809-.008 3.003 25.715h-3.564zM110.502 20.628l1.79-.007c.86 0 1.263-.408 1.294-1.21v-5.546c-.03-.782-.438-1.177-1.208-1.177l-1.876.001v7.939zm3.096 14.345l-1.66-10.794-1.442.006.006 10.78-3.714.008-.006-25.707 7.692-.008 2.702 2.707.003 9.51-1.69 1.697 1.762 11.801h-3.653zM129.22 34.973l-3.108-10.726.018 10.719-3.636.007-.009-25.707 3.637-.008.008 11.674 3.078-11.669 3.633-.005-3.184 13.3 3.297 12.415h-3.734M141.832 20.392l1.568-.01c.567 0 .932-.13 1.168-.383.264-.283.38-.73.347-1.332v-4.43c.012-.423-.089-.751-.3-.976-.234-.246-.608-.37-1.114-.37l-1.669.002v7.5zm1.559 11.012c.088.01.174.012.254.012.81 0 1.24-.454 1.27-1.355v-4.834c0-.883-.466-1.313-1.42-1.313l-1.663.003v7.497l1.559-.01zm-5.193 3.57l-.01-25.708 7.733-.008 2.736 2.774v8.325l-1.665 1.697 1.665 1.676v8.53l-2.666 2.713h-7.793zM160.221 12.69c-1.155.102-1.718.663-1.718 1.715v15.251c-.015.538.116.958.392 1.253.284.311.733.478 1.326.495 1.193-.065 1.783-.654 1.753-1.748v-15.25c-.099-1.036-.692-1.614-1.753-1.717zm-2.653 22.283l-2.63-2.673V11.903l2.59-2.642 5.082-.003 2.797 2.842v19.923l-2.892 2.95h-4.947z" fill="#111"/><g><mask id="b" fill="#fff"><use xlink:href="#a"/></mask><path fill="#111" mask="url(#b)" d="M168.755 9.383h3.92l2.418 6.739 2.027-6.739h3.714l-3.781 12.313 3.888 13.684h-3.82l-2.134-7.457-2.275 7.457h-3.818l4.308-13.647-4.447-12.35M35.61 21.258l-5.458 3.594c1.454.599 2.472 2.005 2.472 3.64 0 2.182-1.81 3.95-4.045 3.95h-9.947l-6.76 4.453a.23.23 0 0 1-.367-.184c.001-.049.015-.09.04-.126l2.5-4.146h-1.938a.227.227 0 0 1-.228-.224V24.77c0-.126.105-.227.232-.227h8.458a.228.228 0 0 1 .224.227c0 .05-.019.092-.045.133l-3.955 6.559 13.382-8.816H9.562l-.005.003H6.99a.23.23 0 0 1-.234-.225c0-.084.047-.156.117-.197l5.006-3.298v-7.677a.229.229 0 0 1 .231-.216h11.749l5.137-3.383.002-.003 2.73-1.8v.001a.228.228 0 0 1 .132-.04.23.23 0 0 1 .233.226c0 .047-.015.09-.042.128l-2.954 4.9c1.988.249 3.527 1.908 3.527 3.919 0 2.18-1.81 3.95-4.045 3.95-.023 0-.046 0-.07-.002h-4.16v.002h-1.752a.23.23 0 0 1-.233-.227c0-.04.012-.077.028-.109l4.41-7.308-14.481 9.54h23.181a.23.23 0 0 1 .232.227c0 .088-.05.164-.125.201zM42.271.301H1.652C.744.3 0 1.027 0 1.915v39.674c0 .887.744 1.613 1.652 1.613h40.62c.909 0 1.653-.726 1.653-1.613V1.915c0-.888-.744-1.614-1.653-1.614zM28.58 26.36h-.717l-6.469 4.262h7.186c1.207 0 2.183-.955 2.183-2.13 0-1.178-.976-2.131-2.183-2.131zM13.74 12.854v4.85l7.363-4.85H13.74zm14.818 4.262l.021.001c1.207 0 2.183-.954 2.183-2.132 0-1.178-.976-2.131-2.183-2.131h-.561l-2.574 4.263 3.114-.001zM13.74 26.361v4.262h1.4l2.571-4.262H13.74z"/></g></g></svg>