<svg width="855" height="570" viewBox="0 0 171 114" fill="none" xmlns="http://www.w3.org/2000/svg"><path fill="#F9F8F3" d="M0 0h171v114H0z"/><path d="M85.5 23.66a59.28 59.28 0 0 0-59.28 59.28h118.56A59.28 59.28 0 0 0 85.5 23.66Z" fill="#232121"/><path d="M53.6 82.93c0-17.6 14.19-31.83 31.67-31.83v-5.7A37.46 37.46 0 0 0 47.9 82.93h5.7ZM85.26 51.1a31.76 31.76 0 0 1 31.69 31.83h5.7A37.46 37.46 0 0 0 85.27 45.4v5.7ZM67.23 82.93c0-10.05 8.02-18.13 17.83-18.13v-5.7c-13.03 0-23.53 10.7-23.53 23.83h5.7ZM85.06 64.8c9.8 0 17.83 8.08 17.83 18.13h5.7c0-13.12-10.5-23.83-23.53-23.83v5.7ZM39.94 82.93a45.54 45.54 0 0 1 45.53-45.54v-5.7a51.24 51.24 0 0 0-51.23 51.24h5.7Zm45.53-45.54a45.54 45.54 0 0 1 45.54 45.54h5.7a51.24 51.24 0 0 0-51.24-51.24v5.7ZM95.1 82.93a10 10 0 0 0-20.01 0H95.1Z" fill="#F9F8F3"/></svg>