<svg width="865" height="580" viewBox="0 0 173 116" fill="none" xmlns="http://www.w3.org/2000/svg"><path fill="#F9F8F3" d="M0 0h172.75v115.17H0z"/><path d="M165.32 43.43h-29.76v28.31h29.76V43.43Z" fill="#232121"/><path d="M44.17 57.3v10.79M86.67 55.44v10.8M129.19 54.06v10.8" stroke="#232121" stroke-width="2.88" stroke-miterlimit="10"/><path d="M35.58 71.74H7.43v-18.1h28.15v18.1Zm2.81-9.02-2.79-9.08v18.1l2.8-9.01Zm39.43-12.78H49.66v21.8h28.16v-21.8Zm3.36 10.94-3.36-10.94v21.8l3.36-10.86Zm38.93-13.71H91.96v24.57h28.15V47.17Zm3.8 12.33-3.8-12.33v24.57l3.8-12.24Z" fill="#232121"/></svg>