<svg width="865" height="580" viewBox="0 0 173 116" fill="none" xmlns="http://www.w3.org/2000/svg"><path fill="#F9F8F3" d="M0 0h172.7v115.2H0z"/><circle r="5" transform="matrix(-1 0 0 1 142 85.6)" fill="#232121"/><circle r="5" transform="matrix(-1 0 0 1 73.2 85.6)" fill="#232121"/><path d="M115.3 80.4a22.9 22.9 0 0 1 23-22.9v23h-23ZM46.6 80.4a23 23 0 0 1 14-21.2c2.8-1.1 5.8-1.7 8.8-1.7v23H46.6Z" fill="#232121"/><circle r="5" transform="matrix(1 0 0 -1 65.6 29.6)" fill="#232121"/><circle r="5" transform="matrix(1 0 0 -1 100.3 29.6)" fill="#232121"/><circle r="5" transform="matrix(1 0 0 -1 30.8 29.6)" fill="#232121"/><circle r="5" transform="matrix(-1 0 0 1 107.6 85.6)" fill="#232121"/><path d="M81 80.4a23 23 0 0 1 22.9-22.9v23h-23ZM92.3 34.6a23 23 0 0 1-23 22.9v-23h23ZM127 34.6a23 23 0 0 1-14.1 21.2 22.6 22.6 0 0 1-8.7 1.7v-23h22.7ZM57.4 34.6a23 23 0 0 1-22.9 22.9v-23h23Z" fill="#232121"/></svg>