<svg width="860" height="575" viewBox="0 0 172 115" fill="none" xmlns="http://www.w3.org/2000/svg"><path fill="#F9F8F3" d="M0 0h171.5v114.3H0z"/><path opacity=".5" fill="#000" fill-opacity=".2" d="M122.8 43.4h-22.3V21.1h22.3z"/><path fill="#232121" fill-opacity=".1" d="M72.3 43.4H50V21.1h22.3zM72.3 68H50V45.7h22.3zM97.5 43.4H75.2V21.1h22.3zM122.8 68h-22.3V45.7h22.3z"/><path opacity=".5" fill="#000" fill-opacity=".2" d="M72.3 92.4H50V70.1h22.3z"/><path d="m128.6 37.7-6 5.7h-22.1V21.2l5.8-5.7h22.3v22.2Z" fill="#232121"/><path fill="#232121" stroke="#fff" stroke-width="2.9" d="M127.1 36.3h-19.4V17h19.4z"/><path fill="#000" fill-opacity=".2" d="M97.5 68H75.2V45.7h22.3z"/><path fill="#232121" fill-opacity=".1" d="M97.5 92.4H75.2V70.1h22.3z"/><path d="m103.3 62.3-5.9 5.6H75.2V45.7L81 40h22.3v22.3Z" fill="#232121"/><path d="m78.1 86.8-5.8 5.7H50V70.2l5.8-5.7h22.3v22.3Z" fill="#232121"/><path fill="#232121" fill-opacity=".1" d="M122.8 92.4h-22.3V70.1h22.3z"/><path fill="#232121" stroke="#fff" stroke-width="2.9" d="M101.9 60.9H82.5V41.5h19.4zM76.6 85.4H57.2V66h19.4z"/></svg>