<?xml version="1.0" encoding="UTF-8"?>
<svg width="194px" height="184px" viewBox="0 0 194 184" version="1.1" xmlns="http://www.w3.org/2000/svg" xmlns:xlink="http://www.w3.org/1999/xlink">
    <!-- Generator: Sketch 55.2 (78181) - https://sketchapp.com -->
    <title>Group 20</title>
    <desc>Created with Sketch.</desc>
    <g id="Page-1" stroke="none" stroke-width="1" fill="none" fill-rule="evenodd" stroke-linejoin="bevel">
        <g id="Group-20" stroke="#FEFEFE">
            <polygon id="Fill-1" fill="#F06022" points="0.7497 80.8451 39.0887 127.9741 96.9917 91.3461 96.9917 21.9941 36.4027 14.4241"></polygon>
            <polygon id="Fill-2" fill="#F9A11B" points="96.9912 21.9941 96.9912 91.3461 154.8942 127.9741 193.2332 80.8451 157.5802 14.4241"></polygon>
            <polygon id="Fill-3" fill="#D8421F" points="39.0888 127.9745 62.7748 183.4075 96.9908 183.4075 131.2078 183.4075 154.8948 127.9745 96.9908 91.3465"></polygon>
            <polygon id="Fill-4" fill="#65001A" points="0.7497 106.0397 39.0887 169.9797 62.7747 183.4077 39.0887 127.9747 0.7497 80.8447"></polygon>
            <polygon id="Fill-5" fill="#F37720" points="154.8945 127.9745 131.2075 183.4075 154.8945 169.9805 193.2335 106.0395 193.2335 80.8455"></polygon>
            <polygon id="Fill-6" fill="#F4831F" points="134.3821 0.7497 96.9911 0.7497 59.6011 0.7497 36.4031 14.4247 96.9911 21.9947 157.5811 14.4247"></polygon>
        </g>
    </g>
</svg>